<svg xmlns="http://www.w3.org/2000/svg" width="40.367" height="40.973" viewBox="0 0 40.367 40.973"><g fill="#83A5B3"><path d="M22.594 1.79c0-.988-.8-1.79-1.79-1.79-.987 0-1.79.802-1.79 1.79v3.977c0 .988.803 1.79 1.79 1.79.99 0 1.79-.802 1.79-1.79V1.79zM8.632 6.078c-.7-.7-1.833-.7-2.532 0-.7.7-.7 1.833 0 2.532l2.812 2.81c.7.7 1.833.7 2.532 0 .7-.697.7-1.83 0-2.53L8.632 6.08zM1.79 18.377c-.988 0-1.79.802-1.79 1.79s.803 1.79 1.79 1.79h3.977c.988 0 1.79-.802 1.79-1.79s-.802-1.79-1.79-1.79H1.79zM6.078 32.944c-.7.7-.7 1.832 0 2.53.7.7 1.832.7 2.532 0l2.81-2.81c.7-.7.7-1.834 0-2.532-.697-.697-1.832-.697-2.53 0l-2.812 2.812zM18.982 39.18c0 .99.8 1.792 1.79 1.792.988-.002 1.79-.803 1.79-1.79v-3.978c0-.988-.802-1.79-1.79-1.79-.987 0-1.79.803-1.79 1.79v3.977zM32.945 35.5c.697.698 1.832.698 2.53 0 .697-.7.697-1.833 0-2.532l-2.81-2.812c-.7-.698-1.833-.698-2.532 0-.7.7-.7 1.832 0 2.53l2.812 2.813zM38.576 22.595c.99 0 1.79-.803 1.79-1.79 0-.99-.8-1.79-1.788-1.79H34.6c-.987 0-1.79.8-1.79 1.79 0 .987.803 1.79 1.79 1.788l3.976.002zM35.498 8.632c.7-.698.7-1.833 0-2.53-.7-.7-1.83-.7-2.53 0l-2.812 2.812c-.7.7-.7 1.83 0 2.53.7.7 1.832.7 2.53 0L35.5 8.633zM20.805 9.7C14.66 9.7 9.68 14.68 9.68 20.827s4.98 11.127 11.125 11.127c6.146 0 11.127-4.98 11.127-11.127 0-6.145-4.98-11.127-11.127-11.127zm0 18.7c-4.184 0-7.576-3.39-7.576-7.573s3.39-7.576 7.575-7.576c4.185 0 7.576 3.395 7.576 7.577S24.99 28.4 20.806 28.4z"/></g></svg>