<svg xmlns="http://www.w3.org/2000/svg" width="54.682" height="33.525" viewBox="0 0 54.682 33.525"><g fill="#83A5B3"><path d="M37.252 6.34c.832 0 1.502-.672 1.502-1.5V1.5c0-.83-.67-1.502-1.502-1.502-.828 0-1.502.673-1.502 1.502v3.336c0 .83.674 1.503 1.502 1.503zM27.273 9.583c.586.586 1.537.586 2.125 0 .586-.587.586-1.538 0-2.124l-2.36-2.36c-.585-.587-1.538-.587-2.124 0s-.586 1.538 0 2.124l2.36 2.36zM47.203 25.305c-.586-.587-1.537-.587-2.123 0-.586.586-.586 1.536 0 2.123l2.358 2.358c.586.588 1.537.588 2.123 0 .587-.586.587-1.537 0-2.123l-2.357-2.358zM53.18 15.955h-3.336c-.83 0-1.504.674-1.504 1.502 0 .83.674 1.502 1.504 1.502h3.336c.828 0 1.502-.673 1.502-1.503 0-.83-.674-1.502-1.502-1.502zM47.223 9.603l2.36-2.36c.587-.586.587-1.538 0-2.124-.587-.588-1.538-.588-2.126 0L45.1 7.477c-.586.586-.586 1.538 0 2.125.586.586 1.537.586 2.123 0z"/><path d="M46.59 17.476c0-5.156-4.182-9.336-9.338-9.336-3.027 0-5.715 1.443-7.422 3.678-1.908-.678-3.74-.63-4.586-.4-2.02-2.01-5.382-3.486-8.78-3.486-6.74 0-12.265 5.21-12.76 11.824C1.49 21.03 0 23.416 0 26.15c0 4.074 3.303 7.375 7.377 7.375h28.438c4.188 0 7.582-3.396 7.582-7.582 0 0 .002-.535-.145-1.32 2.04-1.713 3.338-4.278 3.338-7.147zM35.824 30.7H8.016c-2.756 0-4.79-1.99-4.79-4.57 0-2.105 1.34-3.954 3.432-4.587.247-9.956 8.995-10.463 9.967-10.463 2.89 0 5.758 1.416 7.6 3.514 3.73-1.225 8.842 1.65 8.27 7.212 1.456-.59 2.913-.546 3.33-.546 2.087 0 4.61 1.828 4.61 4.828 0 2.55-2.066 4.613-4.61 4.613zm-.357-12.33c-.574-2.366-1.697-3.982-3.006-5.07 1.167-1.335 2.88-2.18 4.792-2.18 3.512 0 6.354 2.847 6.354 6.356 0 1.567-.57 3.006-1.514 4.115-2.233-3.534-6.625-3.22-6.625-3.22z"/></g></svg>