<svg xmlns="http://www.w3.org/2000/svg" width="30.096" height="39.596" viewBox="0 0 30.096 39.596"><path d="M0 10.61c0-.977.79-1.767 1.768-1.767H16.03c.976 0 1.766.79 1.766 1.766v.784c0 .976-.79 1.767-1.766 1.767l-11.204.004v8.098h7.317c.976 0 1.767.79 1.767 1.766v.785c0 .977-.79 1.767-1.767 1.767H4.826l-.008 12.25c0 .976-.79 1.768-1.768 1.768H1.767C.79 39.596 0 38.804 0 37.828v-27.22zM21.895 2.593c.22-.518.522-.97.908-1.354.383-.385.836-.69 1.354-.91.52-.22 1.076-.33 1.672-.33.594 0 1.152.108 1.67.33.52.222.972.524 1.355.907.384.387.688.838.908 1.354.22.52.33 1.078.33 1.674 0 .595-.11 1.15-.33 1.67-.222.52-.524.973-.908 1.355-.385.384-.836.687-1.354.907-.517.22-1.076.33-1.67.33-.597 0-1.154-.11-1.673-.33-.52-.222-.972-.523-1.354-.908-.386-.385-.688-.837-.908-1.355-.22-.52-.332-1.076-.332-1.67 0-.595.112-1.154.332-1.672zm1.744 2.65c.133.31.31.576.532.81.22.23.475.413.765.547.287.136.585.203.893.203.31 0 .604-.067.895-.203.286-.134.543-.315.765-.547.22-.232.396-.5.532-.81.135-.307.202-.634.202-.978 0-.347-.067-.674-.202-.98-.136-.308-.312-.575-.532-.81-.222-.228-.48-.41-.765-.545-.29-.135-.586-.202-.895-.202-.308 0-.604.067-.893.202-.29.134-.545.317-.765.546-.222.232-.4.5-.533.81-.137.307-.202.634-.202.98 0 .344.066.672.2.978z" fill="#83A5B3"/></svg>