<svg xmlns="http://www.w3.org/2000/svg" width="38.411" height="40.129" viewBox="0 0 38.411 40.129"><path d="M30.243 2.584c.22-.517.52-.967.903-1.35.386-.38.834-.684 1.35-.904C33.014.11 33.57 0 34.162 0c.595 0 1.15.11 1.67.33.516.22.964.523 1.347.904.383.383.686.833.904 1.35.222.517.33 1.072.33 1.666 0 .593-.108 1.148-.33 1.664-.22.518-.52.967-.903 1.35-.383.384-.83.686-1.348.904-.52.22-1.075.33-1.67.33-.59 0-1.146-.11-1.663-.33-.517-.22-.965-.52-1.35-.904-.383-.383-.686-.832-.904-1.35-.22-.516-.33-1.07-.33-1.664 0-.594.11-1.15.33-1.666zm1.737 2.642c.133.306.312.573.53.804.22.23.474.412.762.546.286.135.583.2.89.2.306 0 .603-.065.89-.2.29-.134.543-.315.763-.546s.396-.498.53-.804c.134-.306.2-.632.2-.976 0-.346-.066-.67-.2-.977-.135-.307-.31-.574-.53-.805-.22-.23-.474-.41-.763-.544-.286-.134-.584-.202-.89-.202-.307 0-.604.068-.89.202-.288.134-.54.315-.76.544-.22.23-.4.498-.532.805-.134.307-.2.63-.2.977 0 .344.067.67.2.976zM25.938 29.18h-1.23c-.757 0-1.417.52-1.667 1.19-1.192 3.294-4.36 5.45-8.66 5.45-7.232 0-9.433-6.197-9.433-11.642s2.42-11.522 9.497-11.522c4.297 0 7.412 2.085 8.604 5.378.25.67.91 1.194 1.67 1.194h1.227c.977 0 1.768-.79 1.768-1.767 0-.183-.027-.36-.082-.53-.247-.836-.572-1.662-.978-2.386-.77-1.366-1.743-2.51-2.923-3.433S21.214 9.484 19.72 9c-1.493-.482-3.078-.725-4.754-.725-2.332 0-4.43.412-6.29 1.236-1.862.827-3.433 1.962-4.71 3.41-1.282 1.452-2.262 3.15-2.944 5.098C.34 19.968 0 22.078 0 24.353c0 2.217.34 4.285 1.023 6.205.683 1.918 1.662 3.59 2.943 5.01 1.278 1.42 2.85 2.536 4.71 3.347 1.86.81 3.953 1.215 6.282 1.217H14.967c1.673-.002 3.255-.242 4.745-.727 1.492-.482 2.828-1.188 4.008-2.11 1.18-.923 2.152-2.066 2.92-3.432.408-.726.736-1.55.982-2.388.053-.167.082-.346.082-.53 0-.976-.79-1.766-1.766-1.766z" fill="#83A5B3"/></svg>